<svg version="1.2" xmlns="http://www.w3.org/2000/svg" viewBox="0 0 1635 2010" width="1635" height="2010"><style>.a{fill:none;stroke:#000;stroke-miterlimit:10}.b{fill:#22a561}.c{fill:none;stroke:#fff;stroke-miterlimit:10;stroke-width:33}.d{fill:none;stroke:#22a561;stroke-miterlimit:10;stroke-width:43}</style><path class="a" d=""/><path class="a" d=""/><path class="a" d=""/><path class="b" d="m1606.4 1014.8q-0.2-0.6-0.2-1.2c-7.7-36.1-17.8-71.2-30-105.3-114.2 26.3-234.2 58.2-358.9 97-152.8 47.5-293.5 99.3-421.6 152.3-134.7-16.9-328.5-21.4-536.8 54.4-115.1 41.9-186.3 90.7-249.7 119 38 181.2 157.7 382.9 338.7 518.3 18 11.1 33.7 25.7 52.8 34.8 1.6 0.8 2.4 1.9 2.5 3.2 115.8 72.9 252.9 118.7 407 118.7 449.7 0 814.2-366.9 814.2-819.4 0-58.7-6.1-115.8-17.8-171q-0.1-0.4-0.2-0.8z"/><path class="a" d=""/><path fill-rule="evenodd" class="c" d="m114.7 1588.8c33.3-20.8 67.3-37.8 102.3-57.8 30-16 60-27 90-41 30-13 59-23 91-32 4-2 8-4 12-5 15-3 27-8 42-11 2 0 4-2 6-3 12-4 24-5 36-8 25-7 49-10 74-13 3 0 6-2 9-2 110-6 220-15 323-57 2-1 3 0 5-1 31-14 61-27 91-43 40-22 76-48 115-70 11-10 24-14 37-23 97-65 196-99 305-131 6-1 12-2 18-5 6-3 14-1 20-3 15-6 31-9 47-12 28-4 55-8 81.8-12.2"/><path fill-rule="evenodd" class="c" d="m374 1870.5c108-83.5 230-150.5 361-188.5 66-15 134-21 198-46 48-19 94-37 140-65 10-7 20-12 31-19q1.5-1.5 3-3c13-6 24-15 36-23 42-31 78-59 121-89 32-23 60-43 93-61 3-2 5-4 8-6 88-53 173-96 263.7-136.8"/><path fill-rule="evenodd" class="d" d="m797.5 1163v-823.1"/><path fill-rule="evenodd" class="d" d="m621 220.3l176.5 119.6"/><path fill-rule="evenodd" class="d" d="m628 396l163.8 110.5"/><path fill-rule="evenodd" class="d" d="m617.5 908.5l184.9 125.2"/><path fill-rule="evenodd" class="d" d="m628.2 736.6l176.6 119.7"/><path fill-rule="evenodd" class="d" d="m627.8 586.3l176.6 119.7"/><path fill-rule="evenodd" class="d" d="m799.8 345.8l167.7-132"/><path fill-rule="evenodd" class="d" d="m799.8 512.6l167.7-132"/><path fill-rule="evenodd" class="d" d="m799.8 701.2l167.7-132"/><path fill-rule="evenodd" class="d" d="m803.4 853.5l167.7-132"/><path fill-rule="evenodd" class="d" d="m797.6 1029.5l181.9-129"/><path fill-rule="evenodd" class="d" d="m803.7 39c-18 0.7-59.2 4.8-100.8 32.9-50.6 34-69.8 81.9-75.7 98.5q0 377.8 0 755.6"/><path fill-rule="evenodd" class="d" d="m793.9 39c18.1 0.7 59.3 4.7 100.9 32.5 50.5 33.7 69.8 81 75.7 97.4q0 373.6 0 747.1"/><path fill-rule="evenodd" class="d" d="m326.3 1223.2v-523.9"/><path fill-rule="evenodd" class="d" d="m214 623.1l112.3 76.2"/><path fill-rule="evenodd" class="d" d="m210.3 729.1l112.4 76.1"/><path fill-rule="evenodd" class="d" d="m211.6 1060.5l112.4 76.2"/><path fill-rule="evenodd" class="d" d="m210.3 946l112.4 76.2"/><path fill-rule="evenodd" class="d" d="m212.6 849.1l112.4 76.2"/><path fill-rule="evenodd" class="d" d="m327.8 703l106.7-84"/><path fill-rule="evenodd" class="d" d="m327.8 809.2l106.7-84"/><path fill-rule="evenodd" class="d" d="m327.8 929.2l106.7-84"/><path fill-rule="evenodd" class="d" d="m330.1 1026.1l106.7-84"/><path fill-rule="evenodd" class="d" d="m334.7 1137.9l106.7-84"/><path fill-rule="evenodd" class="d" d="m330.9 507.7c-11.5 0.5-37.7 3.1-64.2 21.2-32.2 21.9-44.4 52.8-48.2 63.4q0 243.4 0 486.7"/><path fill-rule="evenodd" class="d" d="m321 506.7c11.5 0.5 37.7 3 64.2 20.8 32.2 21.5 44.5 51.8 48.2 62.3q0 238.9 0 477.7"/><path fill-rule="evenodd" class="d" d="m1270.1 1031.6v-523.9"/><path fill-rule="evenodd" class="d" d="m1157.7 431.5l112.4 76.2"/><path fill-rule="evenodd" class="d" d="m1154.1 537.5l112.3 76.2"/><path fill-rule="evenodd" class="d" d="m1156.3 862.9l112.4 76.2"/><path fill-rule="evenodd" class="d" d="m1154.1 754.5l112.3 76.1"/><path fill-rule="evenodd" class="d" d="m1156.3 657.5l112.4 76.2"/><path fill-rule="evenodd" class="d" d="m1271.5 511.4l106.8-84"/><path fill-rule="evenodd" class="d" d="m1271.5 617.6l106.8-84"/><path fill-rule="evenodd" class="d" d="m1271.5 737.6l106.8-84"/><path fill-rule="evenodd" class="d" d="m1273.8 834.5l106.7-84"/><path fill-rule="evenodd" class="d" d="m1278.4 945.3l106.7-84"/><path fill-rule="evenodd" class="d" d="m1274.7 316.1c-11.5 0.5-37.7 3-64.2 20.8-32.2 21.5-44.5 51.8-48.2 62.3q0 238.9 0 477.7"/><path fill-rule="evenodd" class="d" d="m1267.8 316.1c11.5 0.5 37.7 3 64.2 20.8 32.2 21.5 44.4 51.8 48.2 62.3q0 238.9 0 477.7"/></svg>